PathFileType	4	(x/y/z)	S10_PSF_T03
DataRate	CameraRate	NumFrames	NumMarkers	Units	OrigDataRate	OrigDataStartFrame	OrigNumFrames
240	240	8	51	mm	240	1	440
Frame#	Time	Sternum			R.Acromium			L.Acromium			Top.Head			R.ASIS			L.ASIS			R.PSIS			L.PSIS			R.Great.Tro			L.Great.Tro			R.Iliac.Crest			L.Iliac.Crest			V.Sacral			R.Thigh.Upper.Post			R.Thigh.Lower.Ant			R.Thigh.Lower.Post			R.Thigh.Upper.Ant			R.Knee.Lat			R.Knee.Med			R.Shank.Upper.Post			R.Shank.Lower.Ant			R.Shank.Lower.Post			R.Shank.Upper.Ant			R.Ankle.Lat			R.Ankle.Med			R.Heel.Upper			R.Heel.Med			R.Heel.Lat			R.Toe.Lat			R.Toe.Med			R.Toe.Tip			L.Thigh.Upper.Post			L.Thigh.Lower.Ant			L.Thigh.Lower.Post			L.Thigh.Upper.Ant			L.Knee.Lat			L.Knee.Med			L.Shank.Upper.Post			L.Shank.Lower.Ant			L.Shank.Lower.Post			L.Shank.Upper.Ant			L.Ankle.Lat			L.Ankle.Med			L.Heel.Upper			L.Heel.Med			L.Heel.Lat			L.Toe.Lat			L.Toe.Med			L.Toe.Tip			Cervical.Spine			Back			
		X1	Y1	Z1	X2	Y2	Z2	X3	Y3	Z3	X4	Y4	Z4	X5	Y5	Z5	X6	Y6	Z6	X7	Y7	Z7	X8	Y8	Z8	X9	Y9	Z9	X10	Y10	Z10	X11	Y11	Z11	X12	Y12	Z12	X13	Y13	Z13	X14	Y14	Z14	X15	Y15	Z15	X16	Y16	Z16	X17	Y17	Z17	X18	Y18	Z18	X19	Y19	Z19	X20	Y20	Z20	X21	Y21	Z21	X22	Y22	Z22	X23	Y23	Z23	X24	Y24	Z24	X25	Y25	Z25	X26	Y26	Z26	X27	Y27	Z27	X28	Y28	Z28	X29	Y29	Z29	X30	Y30	Z30	X31	Y31	Z31	X32	Y32	Z32	X33	Y33	Z33	X34	Y34	Z34	X35	Y35	Z35	X36	Y36	Z36	X37	Y37	Z37	X38	Y38	Z38	X39	Y39	Z39	X40	Y40	Z40	X41	Y41	Z41	X42	Y42	Z42	X43	Y43	Z43	X44	Y44	Z44	X45	Y45	Z45	X46	Y46	Z46	X47	Y47	Z47	X48	Y48	Z48	X49	Y49	Z49	X50	Y50	Z50	X51	Y51	Z51	

1	0	NaN	NaN	NaN	-1534.1	1399.3	442.85	-1592.4	1418	141.05	-1609.1	1713.9	307.81	NaN	NaN	NaN	NaN	NaN	NaN	NaN	NaN	NaN	NaN	NaN	NaN	-1586.9	895.56	483.67	-1557.7	934.19	122.02	-1595.3	1053.3	455.62	NaN	NaN	NaN	-1717.8	964.03	284.57	NaN	NaN	NaN	NaN	NaN	NaN	NaN	NaN	NaN	NaN	NaN	NaN	-1748.2	509.01	406.64	-1740.5	518.82	276.95	-1887.9	321.04	393.45	-1841.6	243.71	370.68	-1910.7	251.62	382.98	-1817.7	309.64	384.73	-1934.8	143.59	354.5	-1918.9	155.88	276.8	-2011.8	105.82	307.63	-2005.7	76.724	280.59	-2011.7	80.544	341.45	-1844.3	47.101	389.36	-1812.6	48.268	281.4	-1751.3	55.877	323.48	-1493	656.33	119.52	-1391.9	608.65	138.69	-1457.9	568.39	139.01	NaN	NaN	NaN	-1390.3	505.63	148.96	-1378.7	504.14	277.96	-1351.1	286.6	153.34	-1246.3	243.18	160.86	-1311.2	219.56	163.28	-1289	306.67	152.91	-1222.9	122	174.09	-1212.6	142.07	260.03	-1261.8	63.309	221.46	-1237.5	42.863	255.88	-1240.2	40.153	191.17	-1081	110.56	153.78	NaN	NaN	NaN	-1023.3	172.91	212.69	-1641.8	1464.7	314.21	-1725.4	1257.5	312.37
2	0.0041667	NaN	NaN	NaN	-1529	1398.7	442.31	-1587	1417.2	140.55	-1604.2	1713.2	307.5	NaN	NaN	NaN	NaN	NaN	NaN	NaN	NaN	NaN	NaN	NaN	NaN	-1581.5	894.81	483.28	-1551.9	933.62	121.55	-1589.7	1052.5	455.34	NaN	NaN	NaN	-1712.2	963.33	284.34	NaN	NaN	NaN	NaN	NaN	NaN	NaN	NaN	NaN	NaN	NaN	NaN	-1743	508.32	406.43	-1735.1	518.07	276.79	-1884.5	321.83	393.55	-1839	244.11	370.8	-1908.9	252.91	382.97	-1813.9	309.77	384.29	-1933.4	144.94	354.91	-1917.5	157.09	277.19	-2010.7	107.95	308.1	-2005	78.893	280.9	-2010.9	82.478	341.79	-1844	47.099	389.49	-1812.3	48.344	281.57	-1751.4	55.581	323.66	-1486.8	655.89	119.59	-1385.9	608.27	139.29	-1451.8	568.02	139.4	NaN	NaN	NaN	-1384.3	505.18	149.58	-1373.3	503.92	278.69	-1347.2	285.83	153.77	-1243	241.41	161.62	-1308.1	218.42	163.73	-1284.9	305.34	153.72	-1220.5	120.58	174.43	-1210.3	140.06	260.56	-1260.3	63.152	221.72	-1236.5	42.154	256.02	-1239.2	39.84	191.34	-1078.9	107.49	154.35	NaN	NaN	NaN	-1020.5	168.66	213.42	-1636.6	1464	313.69	-1719.9	1256.7	312.07
3	0.0083333	NaN	NaN	NaN	-1523.6	1398.2	441.74	-1581.3	1416.3	140.02	-1599	1712.4	307.16	NaN	NaN	NaN	NaN	NaN	NaN	NaN	NaN	NaN	NaN	NaN	NaN	-1575.9	894.03	482.87	-1545.8	933.04	121.07	-1583.8	1051.7	455.05	NaN	NaN	NaN	-1706.4	962.62	284.08	NaN	NaN	NaN	NaN	NaN	NaN	NaN	NaN	NaN	NaN	NaN	NaN	-1737.6	507.58	406.2	-1729.5	517.29	276.61	-1880.9	322.65	393.66	-1836.1	244.55	370.92	-1907	254.24	382.97	-1809.9	309.92	383.85	-1931.9	146.38	355.34	-1916	158.36	277.6	-2009.6	110.22	308.59	-2004.2	81.202	281.21	-2010.1	84.545	342.14	-1843.7	47.102	389.62	-1812	48.423	281.74	-1751.4	55.288	323.84	-1480.4	655.45	119.66	-1379.6	607.89	139.93	-1445.5	567.66	139.81	NaN	NaN	NaN	-1378.1	504.74	150.21	-1367.8	503.69	279.43	-1343.1	285.08	154.21	-1239.6	239.62	162.41	-1304.7	217.28	164.18	-1280.7	304.02	154.55	-1218	119.16	174.76	-1208	138.01	261.1	-1258.8	63.066	221.98	-1235.5	41.486	256.16	-1238.2	39.577	191.52	-1076.8	104.27	154.92	NaN	NaN	NaN	-1017.6	164.18	214.14	-1631.2	1463.2	313.14	-1714.2	1255.9	311.75
4	0.0125	NaN	NaN	NaN	-1518	1397.6	441.16	-1575.5	1415.5	139.47	-1593.7	1711.6	306.81	NaN	NaN	NaN	NaN	NaN	NaN	NaN	NaN	NaN	NaN	NaN	NaN	-1570	893.23	482.45	-1539.4	932.46	120.56	-1577.7	1051	454.74	NaN	NaN	NaN	-1700.4	961.9	283.81	NaN	NaN	NaN	NaN	NaN	NaN	NaN	NaN	NaN	NaN	NaN	NaN	-1732	506.79	405.95	-1723.6	516.46	276.41	-1877.1	323.49	393.8	-1833.1	245.02	371.04	-1904.8	255.6	383.01	-1805.8	310.08	383.43	-1930.4	147.89	355.77	-1914.4	159.69	278.01	-2008.4	112.61	309.08	-2003.3	83.648	281.54	-2009.3	86.748	342.49	-1843.5	47.113	389.75	-1811.6	48.507	281.92	-1751.4	55.005	323.99	-1473.8	655.02	119.74	-1373.2	607.51	140.58	-1439	567.3	140.22	NaN	NaN	NaN	-1371.7	504.31	150.85	-1362	503.48	280.16	-1338.8	284.35	154.64	-1236	237.84	163.2	-1301.2	216.17	164.61	-1276.2	302.72	155.4	-1215.4	117.76	175.08	-1205.5	135.97	261.65	-1257.1	63.065	222.25	-1234.4	40.877	256.31	-1237.2	39.379	191.7	-1074.6	100.92	155.47	NaN	NaN	NaN	-1014.6	159.49	214.82	-1625.6	1462.5	312.57	-1708.3	1255.1	311.42
5	0.016667	NaN	NaN	NaN	-1512.3	1397.1	440.55	-1569.5	1414.6	138.89	-1588.2	1710.9	306.46	NaN	NaN	NaN	NaN	NaN	NaN	NaN	NaN	NaN	NaN	NaN	NaN	-1563.9	892.42	482.01	-1532.8	931.88	120.03	-1571.4	1050.2	454.42	NaN	NaN	NaN	-1694.2	961.18	283.53	NaN	NaN	NaN	NaN	NaN	NaN	NaN	NaN	NaN	NaN	NaN	NaN	-1726	505.97	405.69	-1717.5	515.59	276.19	-1873	324.34	393.96	-1829.9	245.53	371.15	-1902.3	256.98	383.08	-1801.5	310.25	383.04	-1928.7	149.49	356.21	-1912.7	161.07	278.43	-2007.1	115.13	309.58	-2002.4	86.232	281.87	-2008.4	89.087	342.85	-1843.2	47.135	389.88	-1811.2	48.595	282.11	-1751.3	54.737	324.13	-1467.1	654.61	119.81	-1366.6	607.14	141.25	-1432.3	566.96	140.64	NaN	NaN	NaN	-1365.1	503.91	151.48	-1356.2	503.27	280.88	-1334.3	283.67	155.06	-1232.3	236.1	164	-1297.5	215.1	165.02	-1271.7	301.46	156.25	-1212.7	116.39	175.38	-1202.9	133.96	262.2	-1255.4	63.16	222.51	-1233.2	40.342	256.45	-1236.1	39.255	191.88	-1072.4	97.459	155.99	NaN	NaN	NaN	-1011.4	154.63	215.45	-1619.8	1461.8	311.96	-1702.2	1254.2	311.07
6	0.020833	NaN	NaN	NaN	-1506.4	1396.5	439.93	-1563.4	1413.7	138.29	-1582.6	1710.1	306.09	NaN	NaN	NaN	NaN	NaN	NaN	NaN	NaN	NaN	NaN	NaN	NaN	-1557.7	891.59	481.56	-1526	931.32	119.49	-1565	1049.4	454.08	NaN	NaN	NaN	-1687.8	960.48	283.22	NaN	NaN	NaN	NaN	NaN	NaN	NaN	NaN	NaN	NaN	NaN	NaN	-1719.9	505.1	405.4	-1711.2	514.68	275.94	-1868.7	325.2	394.14	-1826.6	246.07	371.26	-1899.6	258.38	383.19	-1797.1	310.43	382.69	-1926.9	151.16	356.66	-1910.9	162.51	278.86	-2005.7	117.77	310.07	-2001.4	88.953	282.2	-2007.3	91.568	343.21	-1842.8	47.17	390.01	-1810.8	48.688	282.29	-1751.2	54.488	324.25	-1460.2	654.22	119.89	-1359.9	606.79	141.93	-1425.5	566.64	141.05	NaN	NaN	NaN	-1358.5	503.55	152.11	-1350.2	503.09	281.58	-1329.7	283.04	155.46	-1228.4	234.4	164.8	-1293.6	214.1	165.4	-1266.9	300.26	157.1	-1209.9	115.09	175.66	-1200.1	131.99	262.74	-1253.6	63.358	222.78	-1232.1	39.896	256.6	-1235	39.215	192.06	-1070.1	93.905	156.46	NaN	NaN	NaN	-1008.2	149.62	216.02	-1613.8	1461.1	311.34	-1696	1253.4	310.7
7	0.025	NaN	NaN	NaN	-1500.5	1396	439.3	-1557.1	1412.9	137.67	-1577	1709.4	305.72	NaN	NaN	NaN	NaN	NaN	NaN	NaN	NaN	NaN	NaN	NaN	NaN	-1551.3	890.76	481.09	-1519.1	930.78	118.94	-1558.4	1048.6	453.74	NaN	NaN	NaN	-1681.3	959.8	282.91	NaN	NaN	NaN	NaN	NaN	NaN	NaN	NaN	NaN	NaN	NaN	NaN	-1713.5	504.19	405.1	-1704.6	513.72	275.67	-1864.1	326.06	394.34	-1823.1	246.64	371.37	-1896.6	259.78	383.34	-1792.5	310.62	382.37	-1925	152.91	357.11	-1909	163.99	279.28	-2004.2	120.53	310.55	-2000.2	91.814	282.53	-2006.2	94.195	343.56	-1842.5	47.221	390.14	-1810.3	48.786	282.48	-1751.1	54.262	324.34	-1453.2	653.87	119.96	-1353.1	606.45	142.61	-1418.7	566.35	141.45	NaN	NaN	NaN	-1351.7	503.24	152.72	-1344.1	502.92	282.25	-1324.9	282.48	155.84	-1224.4	232.78	165.6	-1289.6	213.17	165.75	-1262	299.14	157.94	-1207.1	113.85	175.91	-1197.3	130.09	263.27	-1251.7	63.662	223.03	-1230.9	39.547	256.74	-1233.9	39.263	192.24	-1067.9	90.288	156.89	NaN	NaN	NaN	-1004.9	144.48	216.53	-1607.8	1460.4	310.69	-1689.7	1252.6	310.32
8	0.029167	NaN	NaN	NaN	-1494.4	1395.5	438.66	-1550.7	1412.1	137.03	-1571.2	1708.6	305.34	NaN	NaN	NaN	NaN	NaN	NaN	NaN	NaN	NaN	NaN	NaN	NaN	-1544.7	889.92	480.62	-1512	930.29	118.38	-1551.8	1047.9	453.39	NaN	NaN	NaN	-1674.7	959.14	282.57	NaN	NaN	NaN	NaN	NaN	NaN	NaN	NaN	NaN	NaN	NaN	NaN	-1706.8	503.23	404.79	-1697.9	512.73	275.38	-1859.3	326.93	394.56	-1819.4	247.25	371.48	-1893.3	261.19	383.52	-1787.8	310.83	382.1	-1923	154.74	357.55	-1906.9	165.53	279.71	-2002.5	123.42	311.01	-1999	94.817	282.85	-2005	96.973	343.91	-1842.1	47.291	390.26	-1809.8	48.889	282.66	-1751	54.06	324.41	-1446.2	653.57	120.03	-1346.3	606.15	143.29	-1411.8	566.1	141.84	NaN	NaN	NaN	-1344.9	502.98	153.31	-1337.9	502.78	282.9	-1320	282.01	156.19	-1220.3	231.25	166.38	-1285.5	212.33	166.05	-1257	298.1	158.76	-1204.3	112.69	176.13	-1194.4	128.28	263.78	-1249.8	64.07	223.28	-1229.7	39.299	256.88	-1232.8	39.397	192.41	-1065.7	86.632	157.27	NaN	NaN	NaN	-1001.6	139.26	216.95	-1601.6	1459.7	310.02	-1683.2	1251.8	309.92
